# AST/ASF file generated using VICON BodyLanguage
# -----------------------------------------------
:version 1.10
:name VICON
:units
  mass 1.0
  length 0.45
  angle deg
:documentation
   .ast/.asf automatically generated from VICON data using
   VICON BodyBuilder and BodyLanguage model FoxedUp or BRILLIANT.MOD
:root
   order TX TY TZ RX RY RZ
   axis XYZ
   position 0 0 0  
   orientation 0 0 0 
:bonedata
  begin
     id 1 
     name lhipjoint
     direction 0.734343 -0.627749 0.258209 
     length 2.5437 
     axis 0 0 0  XYZ
  end
  begin
     id 2 
     name lfemur
     direction 0.34202 -0.939693 0  
     length 6.7391  
     axis 0 0 20  XYZ
    dof rx ry rz
    limits (-160.0 20.0)
           (-70.0 70.0)
           (-60.0 70.0)
  end
  begin
     id 3 
     name ltibia
     direction 0.34202 -0.939693 0   
     length 7.21536   
     axis 0 0 20   XYZ
    dof rx
    limits (-10.0 170.0)
  end
  begin
     id 4 
     name lfoot
     direction 0.0489572 -0.134509 0.989702   
     length 1.61313   
     axis -90 7.62852e-016 20   XYZ
    dof rx rz
    limits (-45.0 90.0)
           (-70.0 20.0)
  end
  begin
     id 5 
     name ltoes
     direction 1.53451e-011 -4.21692e-011 1   
     length 0.823104   
     axis -90 7.62852e-016 20   XYZ
    dof rx
    limits (-90.0 20.0)
  end
  begin
     id 6 
     name rhipjoint
     direction -0.746398 -0.615468 0.253157   
     length 2.59446  
     axis 0 0 0  XYZ 
  end
  begin
     id 7 
     name rfemur
     direction -0.34202 -0.939693 0   
     length 6.7075   
     axis 0 0 -20   XYZ
    dof rx ry rz
    limits (-160.0 20.0)
           (-70.0 70.0)
           (-70.0 60.0)
  end
  begin
     id 8 
     name rtibia
     direction -0.34202 -0.939693 0   
     length 7.27262   
     axis 0 0 -20   XYZ
    dof rx
    limits (-10.0 170.0)
 end
 begin
     id 9 
     name rfoot
     direction -0.0455203 -0.125066 0.991104   
     length 1.91095  
     axis -90 -7.62852e-016 -20   XYZ
    dof rx rz
    limits (-45.0 90.0)
           (-20.0 70.0)
  end
  begin
     id 10 
     name rtoes
     direction -1.53601e-011 -4.21913e-011 1   
     length 0.969037   
     axis -90 -7.62852e-016 -20   XYZ
    dof rx
    limits (-90.0 20.0)
  end
  begin
     id 11 
     name lowerback
     direction 0.0181546 0.999122 -0.0377542   
     length 1.99916   
     axis 0 0 0   XYZ
    dof rx ry rz
    limits (-20.0 45.0)
           (-30.0 30.0)
           (-30.0 30.0)
  end
  begin
     id 12 
     name upperback
     direction 0.0203486 0.99589 0.0882534   
     length 1.951   
     axis 0 0 0   XYZ
    dof rx ry rz
    limits (-20.0 45.0)
           (-30.0 30.0)
           (-30.0 30.0)
  end
  begin
     id 13 
     name thorax
     direction 0.0131685 0.994241 0.106355   
     length 1.97461   
     axis 0 0 0   XYZ
    dof rx ry rz
    limits (-20.0 45.0)
           (-30.0 30.0)
           (-30.0 30.0)
  end
  begin
     id 14 
     name lowerneck
     direction -0.0281395 0.999325 0.023617   
     length 1.7959   
     axis 0 0 0   XYZ
    dof rx ry rz
    limits (-20.0 45.0)
           (-30.0 30.0)
           (-30.0 30.0)
  end
  begin
     id 15 
     name upperneck
     direction 0.0288721 0.991984 -0.123019   
     length 1.79917   
     axis 0 0 0   XYZ
    dof rx ry rz
    limits (-20.0 45.0)
           (-30.0 30.0)
           (-30.0 30.0)
  end
  begin
     id 16
     name head
     direction 0.0133797 0.998944 -0.0439492  
     length 1.80902  
     axis 0 0 0   XYZ
    dof rx ry rz
    limits (-20.0 45.0)
           (-30.0 30.0)
           (-30.0 30.0)
  end
  begin
     id 17 
     name lclavicle
     direction 0.919195 0.377107 0.113449  
     length 3.17815  
     axis 0 0 0   XYZ
    dof ry rz
    limits (-20.0 10.0)
           (0.0 20.0)
  end
  begin
     id 18 
     name lhumerus
     direction 1 -4.48959e-011 2.13129e-027   
     length 4.84137   
     axis 180 -30 -90   XYZ
    dof rx ry rz
    limits (-60.0 90.0)
           (-90.0 90.0)
           (-90.0 90.0)
  end
  begin
     id 19
     name lradius
     direction 1 -4.48957e-011 -6.30627e-028   
     length 3.2452   
     axis 180 -30 -90   XYZ
    dof rx
    limits (-10.0 170.0)
  end
  begin
     id 20
     name lwrist
     direction 1 -4.4901e-011 9.13299e-027   
     length 1.6226   
     axis -6.84618e-015 90 90   XYZ
    dof ry
    limits (-180.0 0.0)
 end
  begin
     id 21 
     name lhand
     direction 1 -4.48816e-011 1.82293e-026   
     length 0.521221   
     axis -1.16502e-014 90 90   XYZ
    dof rx rz
    limits (-90.0 90.0)
           (-45.0 45.0)
  end
  begin
     id 22 
     name lfingers
     direction 1 -4.49108e-011 3.65687e-026   
     length 0.420221   
     axis -2.33008e-014 90 90   XYZ
    dof rx
    limits (0.0 90.0)
  end
  begin
     id 23
     name lthumb
     direction 0.707107 -6.34943e-011 0.707107   
     length 0.603356   
     axis -90 45 5.69224e-014   XYZ
    dof rx rz
    limits (-45.0 45.0)
           (-45.0 45.0)
  end
  begin
     id 24 
     name rclavicle
     direction -0.90847 0.38596 0.160368   
     length 3.12973  
     axis 0 0 0   XYZ 
    dof ry rz
    limits (-10.0 20.0)
           (-20.0 0.0)
  end
  begin
     id 25 
     name rhumerus
     direction -1 -4.48974e-011 4.47268e-028  
     length 4.72284   
     axis 180 30 90   XYZ
    dof rx ry rz
    limits (-90.0 60.0)
           (-90.0 90.0)
           (-90.0 90.0)
  end
  begin
     id 26 
     name rradius
     direction -1 -4.48969e-011 3.43203e-027   
     length 3.23459   
     axis 180 30 90   XYZ
    dof rx
    limits (-10.0 170.0)
  end
  begin
     id 27 
     name rwrist
     direction -1 -4.48969e-011 9.12911e-027   
     length 1.6173   
     axis -6.84618e-015 -90 -90   XYZ
    dof ry
    limits (-180.0 0.0)
  end
  begin
     id 28
     name rhand
     direction -1 -4.49194e-011 1.83006e-026   
     length 0.307416   
     axis -1.16502e-014 -90 -90   XYZ
    dof rx rz
    limits (-90.0 90.0)
           (-45.0 45.0)
  end
  begin
     id 29
     name rfingers
     direction -1 -4.48423e-011 3.63103e-026   
     length 0.247847   
     axis -2.33008e-014 -90 -90   XYZ
    dof rx
    limits (0.0 90.0)
  end
  begin
     id 30
     name rthumb
     direction -0.707107 -6.34802e-011 0.707107   
     length 0.35586   
     axis -90 -45 -5.69224e-014   XYZ
    dof rx rz
    limits (-45.0 45.0)
           (-45.0 45.0)
  end
:hierarchy
  begin
    root lhipjoint rhipjoint lowerback
    lhipjoint lfemur
    lfemur ltibia
    ltibia lfoot
    lfoot ltoes
    rhipjoint rfemur
    rfemur rtibia
    rtibia rfoot
    rfoot rtoes
    lowerback upperback
    upperback thorax
    thorax lowerneck lclavicle rclavicle
    lowerneck upperneck
    upperneck head
    lclavicle lhumerus
    lhumerus lradius
    lradius lwrist
    lwrist lhand lthumb
    lhand lfingers
    rclavicle rhumerus
    rhumerus rradius
    rradius rwrist
    rwrist rhand rthumb
    rhand rfingers
  end

#!OML:ASF H:\Terrain\Patient Classification 1\Animal1\Tuesday\Animal1.ASF
:FULLY-SPECIFIED
:DEGREES
1035
root 13.271 15.0921 -4.6688 19.073 12.5757 -6.42032
lowerback 29.8301 -3.46554 -1.53438
upperback 9.49574 -4.43174 2.81171
thorax -5.28138 -2.15477 5.4703
lowerneck -8.51313 8.53761 -1.24593
upperneck -9.97078 11.7614 0.798589
head -1.86077 5.99449 0.5366
rclavicle -1.27222e-014 2.8625e-014
rhumerus 10.8923 -42.4421 -34.7137
rradius 104.91
rwrist -28.2575
rhand -28.1367 30.5678
rfingers 7.12502
rthumb -1.51798 0.593408
lclavicle -1.27222e-014 2.8625e-014
lhumerus -11.8347 -28.0234 68.0117
lradius 58.3305
lwrist -24.3446
lhand -7.33052 41.7532
lfingers 7.12502
lthumb 18.5529 70.8885
rfemur -44.4566 -9.54551 22.5427
rtibia 56.9714
rfoot -14.8359 -26.934
rtoes -16.5605
lfemur -63.8075 16.9987 -8.92177
ltibia 53.0077
lfoot -15.0654 22.6615
ltoes 28.9758
1036
root 13.3478 15.0905 -4.57806 19.0713 13.8173 -5.71496
lowerback 29.1364 -3.29913 -1.94759
upperback 9.36511 -4.33285 2.79745
thorax -5.08457 -2.11109 5.61417
lowerneck -7.7797 8.10031 -0.647946
upperneck -10.1016 11.1337 0.876857
head -1.9825 5.65052 0.428715
rclavicle 1.43125e-014 2.94201e-014
rhumerus 11.982 -43.7281 -34.733
rradius 104.843
rwrist -27.1945
rhand -27.9101 30.5095
rfingers 7.12502
rthumb -1.29904 0.533707
lclavicle 1.43125e-014 2.94201e-014
lhumerus -13.3293 -28.0863 68.9581
lradius 59.0537
lwrist -24.3215
lhand -7.55291 41.585
lfingers 7.12502
lthumb 18.339 70.7405
rfemur -43.9759 -10.3692 21.6747
rtibia 57.7138
rfoot -15.5161 -26.5721
rtoes -13.4362
lfemur -63.9548 16.1259 -9.90481
ltibia 53.3353
lfoot -14.6554 21.7587
ltoes 28.1516
1037
root 13.438 15.0957 -4.48701 18.7532 15.1928 -5.3202
lowerback 29.2839 -3.27724 -1.81377
upperback 8.96789 -4.26133 2.76985
thorax -5.62207 -2.0465 5.51644
lowerneck -7.1306 7.64839 -0.232971
upperneck -9.88402 10.513 1.22966
head -2.00838 5.31164 0.448135
rclavicle -4.77083e-015 1.51076e-014
rhumerus 12.9548 -44.6237 -34.5592
rradius 104.577
rwrist -26.4381
rhand -28.0825 30.2122
rfingers 7.12502
rthumb -1.46562 0.237471
lclavicle -4.77083e-015 1.51076e-014
lhumerus -15.3373 -28.3592 69.9871
lradius 59.9055
lwrist -23.9367
lhand -8.07465 41.967
lfingers 7.12502
lthumb 17.837 71.169
rfemur -43.1494 -11.2899 21.0916
rtibia 58.6447
rfoot -16.8077 -26.0281
rtoes -9.03065
lfemur -63.7853 15.1276 -10.4041
ltibia 53.6178
lfoot -14.2129 20.7349
ltoes 26.321
1038
root 13.5222 15.0815 -4.38832 18.1054 16.472 -5.6854
lowerback 29.4099 -3.16333 -1.28754
upperback 8.7409 -3.94556 2.98823
thorax -5.99044 -1.87788 5.37816
lowerneck -7.38565 7.0771 -0.531569
upperneck -9.04582 9.785 2.14618
head -1.7522 4.94531 0.805422
rclavicle 1.43125e-014 -1.19271e-014
rhumerus 14.3239 -45.6031 -34.699
rradius 104.287
rwrist -25.9923
rhand -29.3578 30.6475
rfingers 7.12502
rthumb -2.69727 0.684773
lclavicle 1.43125e-014 -1.19271e-014
lhumerus -17.3027 -28.3887 71.0146
lradius 60.6927
lwrist -23.5648
lhand -8.90332 41.7513
lfingers 7.12502
lthumb 17.0395 71.024
rfemur -42.4343 -11.6513 21.2478
rtibia 59.8555
rfoot -15.0026 -26.9562
rtoes -9.55273
lfemur -63.5193 14.5487 -10.0788
ltibia 53.9179
lfoot -13.1121 19.7437
ltoes 21.6534
1039
root 13.6042 15.0757 -4.2875 17.592 17.7682 -5.88015
lowerback 29.2435 -2.97221 -0.880932
upperback 8.65856 -3.56787 3.19381
thorax -6.05335 -1.69212 5.24387
lowerneck -8.09993 6.48839 -0.726237
upperneck -8.07959 9.00606 2.921
head -1.36021 4.56285 1.11987
rclavicle -1.35174e-014 4.05521e-014
rhumerus 15.8489 -46.7578 -34.963
rradius 103.88
rwrist -25.4688
rhand -29.7994 31.8478
rfingers 7.12502
rthumb -3.12375 1.89089
lclavicle -1.35174e-014 4.05521e-014
lhumerus -18.9159 -28.3636 71.8762
lradius 61.6278
lwrist -23.0628
lhand -8.67046 41.715
lfingers 7.12502
lthumb 17.2636 70.9682
rfemur -42.1436 -12.0321 21.2446
rtibia 61.5208
rfoot -14.1045 -26.5481
rtoes -3.81806
lfemur -63.2456 13.7494 -9.85179
ltibia 54.1777
lfoot -11.9176 18.9131
ltoes 16.1129
1040
root 13.6971 15.0761 -4.18865 17.3934 19.0473 -5.60071
lowerback 30.0066 -2.65944 -0.935141
upperback 7.86318 -3.1258 3.59835
thorax -7.32469 -1.43467 5.67619
lowerneck -8.86908 5.93685 -1.00398
upperneck -6.4843 8.23549 3.44973
head -0.748771 4.19552 1.38153
rclavicle -2.3059e-014 -2.78299e-015
rhumerus 17.0341 -47.0818 -34.3725
rradius 103.407
rwrist -24.624
rhand -29.4826 32.8638
rfingers 7.12502
rthumb -2.81777 2.90262
lclavicle -2.3059e-014 -2.78299e-015
lhumerus -21.5992 -28.0751 73.9256
lradius 62.696
lwrist -22.7242
lhand -8.04256 42.2969
lfingers 7.12502
lthumb 17.8679 71.4961
rfemur -42.2308 -12.5924 20.6978
rtibia 63.5558
rfoot -12.9626 -25.6487
rtoes 3.2006
lfemur -63.0651 12.7647 -10.161
ltibia 54.4209
lfoot -11.5863 17.5899
ltoes 13.4267
